<?xml version="1.0" encoding="UTF-8"?>
<svg id="Capa_1" data-name="Capa 1" xmlns="http://www.w3.org/2000/svg" viewBox="0 0 283.46 283.46">
  <defs>
    <style>
      .cls-1 {
        fill: #52907f;
      }

      .cls-2 {
        fill: #546881;
      }

      .cls-3 {
        fill: #e37c6c;
      }

      .cls-4 {
        fill: #f4d880;
      }
    </style>
  </defs>
  <polygon class="cls-1" points="14.82 74.1 29.65 74.1 29.65 59.28 0 59.28 0 133.39 59.29 133.39 59.29 0 0 0 0 14.82 44.47 14.82 44.47 118.56 14.82 118.56 14.82 74.1"/>
  <polygon class="cls-3" points="118.56 74.1 103.74 74.1 103.74 59.28 133.39 59.28 133.39 133.39 74.1 133.39 74.1 0 133.39 0 133.39 14.82 88.92 14.82 88.92 118.56 118.56 118.56 118.56 74.1"/>
  <polygon class="cls-4" points="209.36 118.57 209.36 103.74 224.18 103.74 224.18 133.39 150.08 133.39 150.08 74.1 283.46 74.1 283.46 133.39 268.64 133.39 268.64 88.92 164.9 88.92 164.9 118.57 209.36 118.57"/>
  <polygon class="cls-2" points="209.36 14.82 209.36 29.65 224.18 29.65 224.18 0 150.08 0 150.08 59.29 283.46 59.29 283.46 0 268.64 0 268.64 44.47 164.9 44.47 164.9 14.82 209.36 14.82"/>
  <polygon class="cls-1" points="268.64 209.36 253.82 209.36 253.82 224.18 283.46 224.18 283.46 150.08 224.17 150.08 224.17 283.46 283.46 283.46 283.46 268.64 239 268.64 239 164.9 268.64 164.9 268.64 209.36"/>
  <polygon class="cls-3" points="164.9 209.36 179.72 209.36 179.72 224.18 150.08 224.18 150.08 150.08 209.37 150.08 209.37 283.46 150.08 283.46 150.08 268.64 194.55 268.64 194.55 164.9 164.9 164.9 164.9 209.36"/>
  <polygon class="cls-2" points="74.1 268.64 74.1 253.82 59.28 253.82 59.28 283.46 133.39 283.46 133.39 224.17 0 224.17 0 283.46 14.82 283.46 14.82 239 118.56 239 118.56 268.64 74.1 268.64"/>
  <polygon class="cls-4" points="74.1 164.9 74.1 179.72 59.28 179.72 59.28 150.08 133.39 150.08 133.39 209.37 0 209.37 0 150.08 14.82 150.08 14.82 194.54 118.56 194.54 118.56 164.9 74.1 164.9"/>
</svg>